<svg width="45" height="36" viewBox="0 0 45 36" fill="none" xmlns="http://www.w3.org/2000/svg">
<path fill-rule="evenodd" clip-rule="evenodd" d="M31.3 17.6C31.3 22.4601 27.3601 26.4 22.5 26.4C17.6399 26.4 13.7 22.4601 13.7 17.6C13.7 12.7399 17.6399 8.8 22.5 8.8C27.3601 8.8 31.3 12.7399 31.3 17.6ZM26.9 17.6C26.9 20.0301 24.9301 22 22.5 22C20.0699 22 18.1 20.0301 18.1 17.6C18.1 15.1699 20.0699 13.2 22.5 13.2C24.9301 13.2 26.9 15.1699 26.9 17.6Z" fill="#4A4A4A"/>
<path fill-rule="evenodd" clip-rule="evenodd" d="M22.5 0C15.2357 0 9.74448 3.60732 6.13976 7.42768C4.33527 9.34011 2.9645 11.3433 2.03497 13.0664C1.57031 13.9278 1.20321 14.7427 0.946587 15.4636C0.70953 16.1296 0.5 16.8966 0.5 17.6C0.5 18.3034 0.70953 19.0704 0.946587 19.7364C1.20321 20.4573 1.57031 21.2722 2.03497 22.1336C2.9645 23.8567 4.33527 25.8599 6.13976 27.7723C9.74448 31.5927 15.2357 35.2 22.5 35.2C29.7643 35.2 35.2555 31.5927 38.8602 27.7723C40.6647 25.8599 42.0355 23.8567 42.965 22.1336C43.4297 21.2722 43.7968 20.4573 44.0534 19.7364C44.2905 19.0704 44.5 18.3034 44.5 17.6C44.5 16.8966 44.2905 16.1296 44.0534 15.4636C43.7968 14.7427 43.4297 13.9278 42.965 13.0664C42.0355 11.3433 40.6647 9.34011 38.8602 7.42768C35.2555 3.60732 29.7643 0 22.5 0ZM4.90414 17.6061L4.90301 17.6L4.90414 17.5939C4.91493 17.5358 4.9536 17.3274 5.09183 16.9391C5.25988 16.467 5.52838 15.8581 5.90745 15.1554C6.66538 13.7504 7.81455 12.0641 9.34003 10.4473C12.3952 7.20935 16.804 4.4 22.5 4.4C28.196 4.4 32.6048 7.20935 35.66 10.4473C37.1854 12.0641 38.3346 13.7504 39.0926 15.1554C39.4716 15.8581 39.7401 16.467 39.9082 16.9391C40.0464 17.3274 40.0851 17.5358 40.0959 17.5939L40.097 17.6L40.0959 17.6061C40.0851 17.6642 40.0464 17.8726 39.9082 18.2609C39.7401 18.733 39.4716 19.3419 39.0926 20.0446C38.3346 21.4496 37.1854 23.1359 35.66 24.7527C32.6048 27.9907 28.196 30.8 22.5 30.8C16.804 30.8 12.3952 27.9907 9.34003 24.7527C7.81455 23.1359 6.66538 21.4496 5.90745 20.0446C5.52838 19.3419 5.25988 18.733 5.09183 18.2609C4.9536 17.8726 4.91493 17.6642 4.90414 17.6061Z" fill="#4A4A4A"/>
</svg>
