<svg width="38" height="38" viewBox="0 0 38 38" fill="none" xmlns="http://www.w3.org/2000/svg">
<path fill-rule="evenodd" clip-rule="evenodd" d="M10.5315 0.800003C6.71472 0.800003 3.47395 3.59602 2.91461 7.37158L1.0645 19.8598C0.888398 21.0485 0.799988 22.2486 0.799988 23.4503V28.1C0.799988 33.1258 4.8742 37.2 9.89999 37.2H28.1C33.1258 37.2 37.2 33.1258 37.2 28.1V23.4503C37.2 22.2486 37.1116 21.0485 36.9355 19.8598L35.0854 7.37158C34.526 3.59602 31.2853 0.800003 27.4685 0.800003H10.5315ZM7.06927 7.98708C7.32351 6.27092 8.79659 5 10.5315 5H27.4685C29.2034 5 30.6765 6.27092 30.9307 7.98709L32.5623 19H25.6091C24.1025 19 22.7651 19.964 22.2887 21.3932L21.8459 22.7214C21.7507 23.0072 21.4832 23.2 21.1819 23.2H16.8181C16.5168 23.2 16.2493 23.0072 16.154 22.7214L15.7113 21.3932C15.2349 19.964 13.8974 19 12.3909 19H5.43772L7.06927 7.98708ZM5.00153 23.2C5.0005 23.2834 4.99999 23.3668 4.99999 23.4503V28.1C4.99999 30.8062 7.19379 33 9.89999 33H28.1C30.8062 33 33 30.8062 33 28.1V23.4503C33 23.3668 32.9995 23.2834 32.9984 23.2H26.1136L25.8304 24.0495C25.1635 26.0504 23.291 27.4 21.1819 27.4H16.8181C14.709 27.4 12.8365 26.0504 12.1696 24.0495L11.8864 23.2H5.00153Z" fill="#4A4A4A"/>
</svg>
